<?xml version="1.0" encoding="UTF-8"?>
<svg id="Layer_1" data-name="Layer 1" xmlns="http://www.w3.org/2000/svg" viewBox="0 0 600.3532949 212.8">
  <defs>
    <style>
      .cls-1 {
        fill: none;
        stroke-width: 11px;
      }

      .cls-1, .cls-2 {
        stroke: #fff;
        stroke-miterlimit: 10;
      }

      .cls-2 {
        fill: #fff;
        stroke-width: 4px;
      }
    </style>
  </defs>
  <g>
    <path class="cls-2" d="m194.6360097,98.3604492c2.6386719,0,5.1479492.5117188,7.5239258,1.5341797,2.3759766,1.0239258,4.4379883,2.4101562,6.1875,4.1582031,1.7480469,1.7495117,3.1337891,3.8120117,4.1577148,6.1870117,1.0229492,2.3769531,1.534668,4.9179688,1.534668,7.6230469,0,2.7070312-.5117188,5.2324219-1.534668,7.5742188-1.0239258,2.34375-2.409668,4.3896484-4.1577148,6.1376953-1.7495117,1.7490234-3.8115234,3.1357422-6.1875,4.1572266-2.3759766,1.0253906-4.8852539,1.5351562-7.5239258,1.5351562h-18.9091797v33.5605469h-5.1479492v-72.4672852h24.0571289Zm0,33.659668c1.9799805,0,3.8266602-.3623047,5.5439453-1.0888672,1.715332-.7255859,3.2172852-1.7324219,4.5043945-3.0195312s2.3095703-2.7871094,3.0688477-4.5039062c.7583008-1.7167969,1.1386719-3.5644531,1.1386719-5.5449219,0-1.9794922-.3803711-3.8261719-1.1386719-5.5429688-.7592773-1.7167969-1.7817383-3.21875-3.0688477-4.5058594-1.2871094-1.2861328-2.7890625-2.3085938-4.5043945-3.0683594-1.7172852-.7578125-3.5639648-1.1386719-5.5439453-1.1386719h-18.9091797v28.4130859h18.9091797Z"/>
    <path class="cls-2" d="m240.8684316,120.1402344c2.6391602,0,5.1479492.5117188,7.5239258,1.5351562s4.4379883,2.4091797,6.1875,4.1572266c1.7480469,1.7490234,3.1337891,3.8115234,4.1582031,6.1875,1.0224609,2.3759766,1.5341797,4.8857422,1.5341797,7.5244141v31.2832031h-5.2470703v-31.2832031c0-1.9804688-.3632812-3.8271484-1.0888672-5.5449219-.7270508-1.7148438-1.7324219-3.2167969-3.0195312-4.5039062s-2.7890625-2.2929688-4.5043945-3.0195312c-1.7167969-.7255859-3.5639648-1.0888672-5.5439453-1.0888672s-3.8457031.3632812-5.59375,1.0888672c-1.7495117.7265625-3.2666016,1.7324219-4.5537109,3.0195312s-2.2939453,2.7890625-3.0195312,4.5039062c-.7270508,1.7177734-1.0888672,3.5644531-1.0888672,5.5449219v31.2832031h-5.2470703v-74.2495117h5.2470703v29.7983398c1.7817383-1.9121094,3.8930664-3.4296875,6.3359375-4.5527344,2.440918-1.1220703,5.081543-1.6835938,7.9199219-1.6835938Z"/>
    <path class="cls-2" d="m294.8220449,120.040625c3.5639648,0,6.9296875.6777344,10.0976562,2.0302734,3.1679688,1.3535156,5.9228516,3.2021484,8.2666016,5.5439453,2.3417969,2.34375,4.1904297,5.0976562,5.5439453,8.2666016,1.3515625,3.1679688,2.0292969,6.5341797,2.0292969,10.0976562v24.75h-5.2470703v-9.2070312c-2.3105469,3.1679688-5.2636719,5.6767578-8.8603516,7.5244141-3.5976562,1.8466797-7.5410156,2.7714844-11.8300781,2.7714844-3.5644531,0-6.9145508-.6777344-10.0488281-2.0292969-3.1352539-1.3515625-5.875-3.2001953-8.2167969-5.5439453-2.34375-2.3417969-4.1923828-5.0810547-5.5439453-8.2167969-1.3535156-3.1337891-2.0297852-6.4853516-2.0297852-10.0488281s.6762695-6.9296875,2.0297852-10.0976562c1.3515625-3.1689453,3.2001953-5.9228516,5.5439453-8.2666016,2.3417969-2.3417969,5.081543-4.1904297,8.2167969-5.5439453,3.1342773-1.3525391,6.484375-2.0302734,10.0488281-2.0302734Zm0,5.2480469c-2.8388672,0-5.5117188.5439453-8.019043,1.6328125-2.5092773,1.0898438-4.7026367,2.5585938-6.5834961,4.40625-1.8813477,1.8476562-3.3662109,4.0429688-4.4550781,6.5830078-1.0893555,2.5419922-1.6337891,5.2314453-1.6337891,8.0683594,0,2.8388672.5444336,5.5117188,1.6337891,8.0185547,1.0888672,2.5097656,2.5737305,4.703125,4.4550781,6.5839844,1.8808594,1.8808594,4.0742188,3.3662109,6.5834961,4.4550781,2.5073242,1.0888672,5.1801758,1.6328125,8.019043,1.6328125,2.8369141,0,5.5268555-.5439453,8.0683594-1.6328125,2.5400391-1.0888672,4.734375-2.5742188,6.5830078-4.4550781,1.8466797-1.8808594,3.3164062-4.0742188,4.4052734-6.5839844,1.0898438-2.5068359,1.6337891-5.1796875,1.6337891-8.0185547,0-2.8369141-.5439453-5.5263672-1.6337891-8.0683594-1.0888672-2.5400391-2.5585938-4.7353516-4.4052734-6.5830078-1.8486328-1.8476562-4.0429688-3.3164062-6.5830078-4.40625-2.5415039-1.0888672-5.2314453-1.6328125-8.0683594-1.6328125Z"/>
    <path class="cls-2" d="m348.6755605,120.1402344c3.5644531,0,6.8310547.890625,9.8017578,2.6728516,2.9697266,1.7822266,5.3115234,4.1582031,7.0283203,7.1279297,1.7158203-2.9697266,4.0419922-5.3457031,6.9794922-7.1279297,2.9365234-1.7822266,6.2207031-2.6728516,9.8505859-2.6728516,2.6396484,0,5.1484375.5117188,7.5244141,1.5351562s4.4384766,2.4091797,6.1865234,4.1572266c1.7480469,1.7490234,3.1347656,3.8115234,4.1582031,6.1875s1.5351562,4.8857422,1.5351562,7.5244141v31.2832031h-5.2480469v-31.2832031c0-1.9804688-.3632812-3.8271484-1.0878906-5.5449219-.7265625-1.7148438-1.7324219-3.2167969-3.0195312-4.5039062s-2.7890625-2.2929688-4.5048828-3.0195312c-1.7167969-.7255859-3.5634766-1.0888672-5.5439453-1.0888672-1.9794922,0-3.8457031.3632812-5.5927734,1.0888672-1.75.7265625-3.2675781,1.7324219-4.5546875,3.0195312s-2.2939453,2.7890625-3.0195312,4.5039062c-.7265625,1.7177734-1.0888672,3.5644531-1.0888672,5.5449219v31.2832031h-5.1474609v-31.2832031c0-1.9804688-.3808594-3.8271484-1.1386719-5.5449219-.7597656-1.7148438-1.7822266-3.2167969-3.0693359-4.5039062s-2.7890625-2.2929688-4.5039062-3.0195312c-1.7177734-.7255859-3.5644531-1.0888672-5.5449219-1.0888672-1.9794922,0-3.8447266.3632812-5.5927734,1.0888672-1.75.7265625-3.2675781,1.7324219-4.5546875,3.0195312-1.2861328,1.2871094-2.2939453,2.7890625-3.0195312,4.5039062-.7265625,1.7177734-1.0888672,3.5644531-1.0888672,5.5449219v31.2832031h-5.1474609v-31.2832031c0-2.6386719.5097656-5.1484375,1.5341797-7.5244141,1.0224609-2.3759766,2.4082031-4.4384766,4.1582031-6.1875,1.7480469-1.7480469,3.7939453-3.1337891,6.1376953-4.1572266,2.3417969-1.0234375,4.8662109-1.5351562,7.5732422-1.5351562Z"/>
    <path class="cls-2" d="m411.6394277,98.459082h5.1474609v67.2211914h40.8867188v5.1474609h-46.0341797v-72.3686523Z"/>
    <path class="cls-2" d="m482.5232167,171.8179688c-2.7070312,0-5.2314453-.5117188-7.5742188-1.5341797s-4.3896484-2.4091797-6.1376953-4.1582031c-1.7490234-1.7480469-3.1357422-3.7939453-4.1582031-6.1376953-1.0234375-2.3417969-1.5341797-4.8671875-1.5341797-7.5742188v-31.1845703h5.1484375v31.1845703c0,1.9804688.3613281,3.8457031,1.0888672,5.59375.7255859,1.75,1.7324219,3.2675781,3.0195312,4.5546875s2.8037109,2.2929688,4.5537109,3.0195312c1.7480469.7265625,3.6132812,1.0878906,5.59375,1.0878906,1.9794922,0,3.8271484-.3613281,5.5439453-1.0878906,1.7148438-.7265625,3.2167969-1.7324219,4.5039062-3.0195312s2.2929688-2.8046875,3.0195312-4.5546875c.7255859-1.7480469,1.0888672-3.6132812,1.0888672-5.59375v-31.1845703h5.2470703v31.1845703c0,2.7070312-.5117188,5.2324219-1.5341797,7.5742188-1.0244141,2.34375-2.4101562,4.3896484-4.1582031,6.1376953-1.7490234,1.7490234-3.8115234,3.1357422-6.1875,4.1582031s-4.8847656,1.5341797-7.5234375,1.5341797Z"/>
    <path class="cls-2" d="m508.7575917,170.8277344l14.3554688-24.75-14.3554688-24.75h6.0390625l11.2861328,19.6025391,11.2861328-19.6025391h5.9394531l-14.2558594,24.75,14.2558594,24.75h-5.9394531l-11.2861328-19.6015625-11.2861328,19.6015625h-6.0390625Z"/>
    <path class="cls-2" d="m572.5144277,172.1148438c-3.5644531,0-6.9296875-.6777344-10.0976562-2.0292969s-5.9248047-3.2001953-8.2666016-5.5439453c-2.34375-2.3417969-4.1923828-5.0810547-5.5439453-8.2167969-1.3535156-3.1337891-2.0292969-6.484375-2.0292969-10.0478516,0-3.5644531.6757812-6.9306641,2.0292969-10.0986328,1.3515625-3.1679688,3.2001953-5.9228516,5.5439453-8.2666016,2.3417969-2.3417969,5.0986328-4.1904297,8.2666016-5.5439453,3.1679688-1.3525391,6.5332031-2.0302734,10.0976562-2.0302734s6.9130859.6777344,10.0488281,2.0302734c3.1337891,1.3535156,5.8730469,3.2021484,8.2167969,5.5439453,2.3417969,2.34375,4.1904297,5.0986328,5.5439453,8.2666016,1.3515625,3.1679688,2.0292969,6.5341797,2.0292969,10.0986328v1.2861328c0,.3955078-.0341797.8261719-.0986328,1.2871094h-46.3320312c.3291016,2.5742188,1.0888672,4.9501953,2.2763672,7.1279297,1.1884766,2.1777344,2.6884766,4.09375,4.5048828,5.7421875,1.8144531,1.6503906,3.9101562,2.9375,6.2861328,3.8613281,2.3759766.9248047,4.8837891,1.3857422,7.5244141,1.3857422,1.9130859,0,3.7275391-.3623047,5.4453125-1.0888672,1.7148438-.7255859,3.2324219-1.7480469,4.5537109-3.0693359l3.6630859,3.6630859c-1.7167969,1.7167969-3.7470703,3.0859375-6.0888672,4.1083984-2.3427734,1.0224609-4.8681641,1.5341797-7.5732422,1.5341797Zm20.4931641-28.4121094c-.3310547-2.5742188-1.0888672-4.9511719-2.2773438-7.1289062-1.1875-2.1777344-2.6894531-4.0917969-4.5039062-5.7421875-1.8164062-1.6484375-3.8955078-2.9355469-6.2373047-3.8603516-2.34375-.9228516-4.8359375-1.3857422-7.4746094-1.3857422-2.640625,0-5.1484375.4628906-7.5244141,1.3857422-2.3759766.9248047-4.4716797,2.2119141-6.2861328,3.8603516-1.8164062,1.6503906-3.3164062,3.5644531-4.5048828,5.7421875-1.1875,2.1777344-1.9472656,4.5546875-2.2763672,7.1289062h41.0849609Z"/>
  </g>
  <rect class="cls-1" x="5.5" y="5.5" width="100" height="161.8"/>
  <rect class="cls-1" x="45.5" y="45.5" width="100" height="161.8"/>
</svg>