<?xml version="1.0" encoding="UTF-8"?>
<svg id="Layer_1" data-name="Layer 1" xmlns="http://www.w3.org/2000/svg" viewBox="0 0 431.7744141 303.6548828">
  <defs>
    <style>
      .cls-1 {
        fill: none;
        stroke-width: 11px;
      }

      .cls-1, .cls-2 {
        stroke: #000;
        stroke-miterlimit: 10;
      }

      .cls-2 {
        stroke-width: 4px;
      }
    </style>
  </defs>
  <g>
    <path class="cls-2" d="m26.0571289,227.9c2.6386719,0,5.1479492.5117188,7.5239258,1.5341797,2.3759766,1.0244141,4.4379883,2.4101562,6.1875,4.1582031,1.7480469,1.75,3.1337891,3.8115234,4.1577148,6.1875,1.0229492,2.3759766,1.534668,4.9179688,1.534668,7.6230469,0,2.7070312-.5117188,5.2314453-1.534668,7.5732422-1.0239258,2.34375-2.409668,4.390625-4.1577148,6.1386719-1.7495117,1.7490234-3.8115234,3.1347656-6.1875,4.1572266-2.3759766,1.0244141-4.8852539,1.5351562-7.5239258,1.5351562H7.1479492v33.5605469H2v-72.4677734h24.0571289Zm0,33.6601562c1.9799805,0,3.8266602-.3623047,5.5439453-1.0888672,1.715332-.7255859,3.2172852-1.7324219,4.5043945-3.0195312s2.3095703-2.7880859,3.0688477-4.5048828c.7583008-1.7158203,1.1386719-3.5634766,1.1386719-5.5439453,0-1.9794922-.3803711-3.8271484-1.1386719-5.5439453-.7592773-1.7158203-1.7817383-3.2177734-3.0688477-4.5048828-1.2871094-1.2861328-2.7890625-2.3085938-4.5043945-3.0683594-1.7172852-.7578125-3.5639648-1.1386719-5.5439453-1.1386719H7.1479492v28.4130859h18.9091797Z"/>
    <path class="cls-2" d="m72.2895508,249.6802734c2.6391602,0,5.1479492.5117188,7.5239258,1.5341797,2.3759766,1.0244141,4.4379883,2.4101562,6.1875,4.1582031,1.7480469,1.7490234,3.1337891,3.8115234,4.1582031,6.1875,1.0224609,2.3759766,1.5341797,4.8847656,1.5341797,7.5234375v31.2841797h-5.2470703v-31.2841797c0-1.9794922-.3632812-3.8261719-1.0888672-5.5439453-.7270508-1.7148438-1.7324219-3.2167969-3.0195312-4.5039062s-2.7890625-2.2929688-4.5043945-3.0195312c-1.7167969-.7255859-3.5639648-1.0888672-5.5439453-1.0888672s-3.8457031.3632812-5.59375,1.0888672c-1.7495117.7265625-3.2666016,1.7324219-4.5537109,3.0195312s-2.2939453,2.7890625-3.0195312,4.5039062c-.7270508,1.7177734-1.0888672,3.5644531-1.0888672,5.5439453v31.2841797h-5.2470703v-74.25h5.2470703v29.7988281c1.7817383-1.9130859,3.8930664-3.4306641,6.3359375-4.5537109,2.440918-1.1210938,5.081543-1.6826172,7.9199219-1.6826172Z"/>
    <path class="cls-2" d="m126.2431641,249.5806641c3.5639648,0,6.9296875.6777344,10.0976562,2.0302734,3.1679688,1.3535156,5.9228516,3.2011719,8.2666016,5.5439453,2.3417969,2.3427734,4.1904297,5.0976562,5.5439453,8.2666016,1.3520508,3.1679688,2.0297852,6.5332031,2.0297852,10.0976562v24.75h-5.2470703v-9.2070312c-2.3110352,3.1679688-5.2641602,5.6767578-8.8608398,7.5234375-3.5976562,1.8476562-7.5410156,2.7724609-11.8300781,2.7724609-3.5644531,0-6.9145508-.6777344-10.0488281-2.0292969-3.1352539-1.3525391-5.875-3.2001953-8.2167969-5.5439453-2.34375-2.3417969-4.1923828-5.0820312-5.5439453-8.2167969-1.3535156-3.1347656-2.0297852-6.4853516-2.0297852-10.0488281,0-3.5644531.6762695-6.9296875,2.0297852-10.0976562,1.3515625-3.1689453,3.2001953-5.9238281,5.5439453-8.2666016,2.3417969-2.3427734,5.081543-4.1904297,8.2167969-5.5439453,3.1342773-1.3525391,6.484375-2.0302734,10.0488281-2.0302734Zm0,5.2470703c-2.8388672,0-5.5117188.5449219-8.019043,1.6337891-2.5092773,1.0888672-4.7026367,2.5585938-6.5834961,4.4052734-1.8813477,1.8486328-3.3662109,4.0439453-4.4550781,6.5839844-1.0893555,2.5410156-1.6337891,5.2314453-1.6337891,8.0683594,0,2.8388672.5444336,5.5117188,1.6337891,8.0185547,1.0888672,2.5097656,2.5737305,4.703125,4.4550781,6.5839844,1.8808594,1.8808594,4.0742188,3.3662109,6.5834961,4.4550781,2.5073242,1.0888672,5.1801758,1.6328125,8.019043,1.6328125,2.8369141,0,5.5268555-.5439453,8.0683594-1.6328125,2.5400391-1.0888672,4.7348633-2.5742188,6.5834961-4.4550781,1.8466797-1.8808594,3.3164062-4.0742188,4.4052734-6.5839844,1.0893555-2.5068359,1.6337891-5.1796875,1.6337891-8.0185547,0-2.8369141-.5444336-5.5273438-1.6337891-8.0683594-1.0888672-2.5400391-2.5585938-4.7353516-4.4052734-6.5839844-1.8486328-1.8466797-4.043457-3.3164062-6.5834961-4.4052734-2.5415039-1.0888672-5.2314453-1.6337891-8.0683594-1.6337891Z"/>
    <path class="cls-2" d="m180.097168,249.6802734c3.5639648,0,6.8310547.890625,9.8012695,2.6728516,2.9697266,1.7822266,5.3120117,4.1582031,7.0288086,7.1279297,1.7158203-2.9697266,4.0419922-5.3457031,6.9794922-7.1279297,2.9360352-1.7822266,6.2202148-2.6728516,9.8505859-2.6728516,2.6391602,0,5.1479492.5117188,7.5239258,1.5341797,2.3759766,1.0244141,4.4375,2.4101562,6.1875,4.1582031,1.7480469,1.7490234,3.1337891,3.8115234,4.1582031,6.1875,1.0224609,2.3759766,1.5341797,4.8847656,1.5341797,7.5234375v31.2841797h-5.2470703v-31.2841797c0-1.9794922-.3632812-3.8261719-1.0888672-5.5439453-.7275391-1.7148438-1.7324219-3.2167969-3.0195312-4.5039062s-2.7890625-2.2929688-4.5043945-3.0195312c-1.7167969-.7255859-3.5639648-1.0888672-5.5439453-1.0888672s-3.8457031.3632812-5.5932617,1.0888672c-1.7495117.7265625-3.2670898,1.7324219-4.5541992,3.0195312s-2.2939453,2.7890625-3.0195312,4.5039062c-.7270508,1.7177734-1.0888672,3.5644531-1.0888672,5.5439453v31.2841797h-5.1479492v-31.2841797c0-1.9794922-.3808594-3.8261719-1.1386719-5.5439453-.7592773-1.7148438-1.7822266-3.2167969-3.0688477-4.5039062-1.2871094-1.2871094-2.7890625-2.2929688-4.5043945-3.0195312-1.7172852-.7255859-3.5644531-1.0888672-5.5444336-1.0888672s-3.8452148.3632812-5.5932617,1.0888672c-1.7495117.7265625-3.2670898,1.7324219-4.5541992,3.0195312-1.2866211,1.2871094-2.2939453,2.7890625-3.0195312,4.5039062-.7270508,1.7177734-1.0888672,3.5644531-1.0888672,5.5439453v31.2841797h-5.1479492v-31.2841797c0-2.6386719.5102539-5.1474609,1.534668-7.5234375,1.0224609-2.3759766,2.4082031-4.4384766,4.1577148-6.1875,1.7480469-1.7480469,3.7944336-3.1337891,6.1381836-4.1582031,2.3417969-1.0224609,4.8662109-1.5341797,7.5732422-1.5341797Z"/>
    <path class="cls-2" d="m243.0605469,227.9986328h5.1474609v67.2216797h40.8867188v5.1474609h-46.0341797v-72.3691406Z"/>
    <path class="cls-2" d="m313.9443359,301.3580078c-2.7070312,0-5.2314453-.5117188-7.5742188-1.5341797s-4.3896484-2.4091797-6.1376953-4.1582031c-1.7490234-1.7480469-3.1357422-3.7949219-4.1582031-6.1376953-1.0234375-2.3427734-1.5341797-4.8671875-1.5341797-7.5742188v-31.1845703h5.1484375v31.1845703c0,1.9804688.3613281,3.8457031,1.0888672,5.59375.7255859,1.75,1.7324219,3.2666016,3.0195312,4.5537109s2.8037109,2.2939453,4.5537109,3.0195312c1.7480469.7275391,3.6132812,1.0888672,5.59375,1.0888672,1.9794922,0,3.8271484-.3613281,5.5439453-1.0888672,1.7148438-.7255859,3.2167969-1.7324219,4.5039062-3.0195312s2.2929688-2.8037109,3.0195312-4.5537109c.7255859-1.7480469,1.0888672-3.6132812,1.0888672-5.59375v-31.1845703h5.2470703v31.1845703c0,2.7070312-.5117188,5.2314453-1.5341797,7.5742188-1.0244141,2.3427734-2.4101562,4.3896484-4.1582031,6.1376953-1.7490234,1.7490234-3.8115234,3.1357422-6.1875,4.1582031s-4.8847656,1.5341797-7.5234375,1.5341797Z"/>
    <path class="cls-2" d="m340.1787109,300.3677734l14.3554688-24.75-14.3554688-24.75h6.0390625l11.2861328,19.6025391,11.2861328-19.6025391h5.9394531l-14.2558594,24.75,14.2558594,24.75h-5.9394531l-11.2861328-19.6015625-11.2861328,19.6015625h-6.0390625Z"/>
    <path class="cls-2" d="m403.9355469,301.6548828c-3.5644531,0-6.9296875-.6777344-10.0976562-2.0292969s-5.9248047-3.2001953-8.2666016-5.5439453c-2.34375-2.3417969-4.1923828-5.0820312-5.5439453-8.2167969-1.3535156-3.1347656-2.0292969-6.484375-2.0292969-10.0488281s.6757812-6.9296875,2.0292969-10.0976562c1.3515625-3.1679688,3.2001953-5.9228516,5.5439453-8.2666016,2.3417969-2.3417969,5.0986328-4.1904297,8.2666016-5.5439453,3.1679688-1.3525391,6.5332031-2.0302734,10.0976562-2.0302734s6.9130859.6777344,10.0488281,2.0302734c3.1337891,1.3535156,5.8730469,3.2021484,8.2167969,5.5439453,2.3417969,2.34375,4.1904297,5.0986328,5.5439453,8.2666016,1.3515625,3.1679688,2.0292969,6.5332031,2.0292969,10.0976562v1.2871094c0,.3955078-.0341797.8261719-.0986328,1.2871094h-46.3320312c.3291016,2.5742188,1.0888672,4.9501953,2.2763672,7.1279297,1.1884766,2.1777344,2.6884766,4.0927734,4.5048828,5.7421875,1.8144531,1.6503906,3.9101562,2.9375,6.2861328,3.8603516,2.3759766.9257812,4.8837891,1.3867188,7.5244141,1.3867188,1.9130859,0,3.7275391-.3623047,5.4453125-1.0898438,1.7148438-.7246094,3.2324219-1.7470703,4.5537109-3.0683594l3.6630859,3.6630859c-1.7167969,1.7167969-3.7470703,3.0859375-6.0888672,4.1083984-2.3427734,1.0224609-4.8681641,1.5341797-7.5732422,1.5341797Zm20.4931641-28.4130859c-.3310547-2.5742188-1.0888672-4.9501953-2.2773438-7.1279297-1.1875-2.1777344-2.6894531-4.0917969-4.5039062-5.7421875-1.8164062-1.6484375-3.8955078-2.9355469-6.2373047-3.8603516-2.34375-.9238281-4.8359375-1.3867188-7.4746094-1.3867188-2.640625,0-5.1484375.4628906-7.5244141,1.3867188-2.3759766.9248047-4.4716797,2.2119141-6.2861328,3.8603516-1.8164062,1.6503906-3.3164062,3.5644531-4.5048828,5.7421875-1.1875,2.1777344-1.9472656,4.5537109-2.2763672,7.1279297h41.0849609Z"/>
  </g>
  <rect class="cls-1" x="144.7097396" y="5.5" width="100" height="161.8"/>
  <rect class="cls-1" x="184.7097396" y="45.5" width="100" height="161.8"/>
</svg>