<?xml version="1.0" encoding="UTF-8"?>
<svg xmlns="http://www.w3.org/2000/svg" viewBox="0 0 504 321.625">
  <defs>
    <style>
      .cls-1 {
        fill: #fff;
        stroke: #fff;
      }

      .cls-1, .cls-2 {
        stroke-miterlimit: 10;
        stroke-width: 4px;
      }

      .cls-2 {
        stroke: #000;
      }
    </style>
  </defs>
  <g id="Layer_1" data-name="Layer 1">
    <rect class="cls-2" x="2" y="2" width="500" height="317.625"/>
  </g>
  <g id="Text">
    <g>
      <path class="cls-1" d="m52.181479,127.9014001c2.777513,0,5.418823.5386443,7.9198183,1.6149049,2.5009952,1.0783165,4.6715055,2.5369734,6.5130727,4.3769987,1.8400253,1.8420812,3.2986822,4.0120775,4.3764847,6.5130727,1.0767746,2.5009952,1.6154188,5.1767415,1.6154188,8.0241549,0,2.8494693-.5386443,5.5067125-1.6154188,7.9717296-1.0778025,2.467073-2.5364594,4.6216501-4.3764847,6.4616753-1.8415672,1.8410532-4.0120775,3.2997101-6.5130727,4.3759707-2.5009952,1.0783165-5.1423053,1.6159328-7.9198183,1.6159328h-19.9041393v35.3264293h-5.418823v-76.2808689h25.3229623Zm0,35.4312799c2.0841627,0,4.0280106-.3813684,5.8356556-1.146161,1.805589-.7637647,3.3865717-1.8235781,4.7414059-3.1784124s2.4310948-2.9347889,3.2303237-4.7419199c.7982009-1.806103,1.1985863-3.7509789,1.1985863-5.8356556,0-2.0836487-.4003854-4.0285246-1.1985863-5.8356556-.7992289-1.806103-1.8754894-3.3870856-3.2303237-4.7419199-1.3548343-1.3538063-2.9358169-2.4300669-4.7414059-3.2298097-1.8076449-.7976869-3.7514929-1.1985863-5.8356556-1.1985863h-19.9041393v29.9081203h19.9041393Z"/>
      <path class="cls-1" d="m100.8465496,150.8277038c2.778027,0,5.418823.5386443,7.9198183,1.6149049,2.5009952,1.0783165,4.6715055,2.5369734,6.5130727,4.3769987,1.8400253,1.8410532,3.2986822,4.0120775,4.3769987,6.5130727,1.0762606,2.5009952,1.6149049,5.1417913,1.6149049,7.9193043v32.9302847h-5.5231597v-32.9302847c0-2.0836487-.3823963-4.0274967-1.146161-5.8356556-.7653066-1.8050751-1.8235781-3.3860577-3.1784124-4.7408919s-2.9358169-2.4136197-4.7414059-3.1784124c-1.807131-.7637647-3.7514929-1.146161-5.8356556-1.146161s-4.0480556.3823963-5.8880809,1.146161c-1.8415672.7647926-3.438483,1.8235781-4.7933172,3.1784124s-2.4146477,2.9358169-3.1784124,4.7408919c-.7653066,1.8081589-1.146161,3.7520068-1.146161,5.8356556v32.9302847h-5.5231597v-78.1568724h5.5231597v31.3667772c1.8754894-2.0137483,4.097911-3.6111781,6.6693207-4.7933172,2.5693537-1.1800832,5.3489226-1.7711528,8.3366508-1.7711528Z"/>
      <path class="cls-1" d="m157.6390838,150.7228532c3.7514929,0,7.2943125.7133953,10.6289728,2.137102,3.3346603,1.4247347,6.234499,3.3696105,8.701572,5.8356556,2.4650171,2.466045,4.4109209,5.3658838,5.8356556,8.701572,1.4231927,3.3346603,2.136588,6.876966,2.136588,10.6289728v26.0522908h-5.5231597v-9.6914851c-2.4326368,3.3346603-5.5411487,5.9754564-9.3270778,7.9193043-3.786957,1.9448759-7.9378073,2.9183418-12.4525509,2.9183418-3.7520068,0-7.2783793-.7133953-10.5775755-2.136074-3.3002241-1.4237067-6.1841296-3.3685826-8.6491467-5.8356556-2.467073-2.4650171-4.4129768-5.3494366-5.8356556-8.6491467-1.4247347-3.2997101-2.136588-6.8265966-2.136588-10.5775755,0-3.7520068.7118534-7.2943125,2.136588-10.6289728,1.4226788-3.3356883,3.3685826-6.235527,5.8356556-8.701572,2.4650171-2.466045,5.3489226-4.4109209,8.6491467-5.8356556,3.2991962-1.4237067,6.8255686-2.137102,10.5775755-2.137102Zm0,5.5231597c-2.9882422,0-5.8017333.5735945-8.4409874,1.7197555-2.64131,1.146161-4.9500792,2.6932213-6.9299052,4.6370693-1.98034,1.9459038-3.5433336,4.2567289-4.6894946,6.9304192-1.146675,2.6747183-1.7197555,5.5067125-1.7197555,8.4928988,0,2.9882422.5730805,5.8017333,1.7197555,8.4404735,1.146161,2.641824,2.7091545,4.9505931,4.6894946,6.9304192,1.9798261,1.9798261,4.2885952,3.5433336,6.9299052,4.6894946,2.6392541,1.146161,5.4527453,1.7187275,8.4409874,1.7187275,2.9861863,0,5.8176665-.5725665,8.4928988-1.7187275,2.6736904-1.146161,4.9840014-2.7096685,6.9299052-4.6894946,1.9438479-1.9798261,3.4909083-4.2885952,4.6370693-6.9304192,1.146675-2.6387402,1.7197555-5.4522313,1.7197555-8.4404735,0-2.9861863-.5730805-5.8181805-1.7197555-8.4928988-1.146161-2.6736904-2.6932213-4.9845154-4.6370693-6.9304192-1.9459038-1.9438479-4.2562149-3.4909083-6.9299052-4.6370693-2.6752323-1.146161-5.5067125-1.7197555-8.4928988-1.7197555Z"/>
      <path class="cls-1" d="m214.3267675,150.8277038c3.7514929,0,7.1904898.9374877,10.3169909,2.8134912,3.1259871,1.8760034,5.5915181,4.3769987,7.3986491,7.5029857,1.806103-3.1259871,4.254673-5.6269823,7.3467378-7.5029857,3.0905229-1.8760034,6.5475089-2.8134912,10.3689022-2.8134912,2.778027,0,5.418823.5386443,7.9198183,1.6149049,2.5009952,1.0783165,4.6709915,2.5369734,6.5130727,4.3769987,1.8400253,1.8410532,3.2986822,4.0120775,4.3769987,6.5130727,1.0762606,2.5009952,1.6149049,5.1417913,1.6149049,7.9193043v32.9302847h-5.5231597v-32.9302847c0-2.0836487-.3823963-4.0274967-1.146161-5.8356556-.7658206-1.8050751-1.8235781-3.3860577-3.1784124-4.7408919s-2.9358169-2.4136197-4.7414059-3.1784124c-1.807131-.7637647-3.7514929-1.146161-5.8356556-1.146161s-4.0480556.3823963-5.8875669,1.146161c-1.8415672.7647926-3.438997,1.8235781-4.7938312,3.1784124s-2.4146477,2.9358169-3.1784124,4.7408919c-.7653066,1.8081589-1.146161,3.7520068-1.146161,5.8356556v32.9302847h-5.418823v-32.9302847c0-2.0836487-.4008994-4.0274967-1.1985863-5.8356556-.7992289-1.8050751-1.8760034-3.3860577-3.2303237-4.7408919-1.3548343-1.3548343-2.9358169-2.4136197-4.7414059-3.1784124-1.8076449-.7637647-3.7520068-1.146161-5.8361695-1.146161s-4.0475416.3823963-5.8875669,1.146161c-1.8415672.7647926-3.438997,1.8235781-4.7938312,3.1784124-1.3543203,1.3548343-2.4146477,2.9358169-3.1784124,4.7408919-.7653066,1.8081589-1.146161,3.7520068-1.146161,5.8356556v32.9302847h-5.418823v-32.9302847c0-2.777513.5371023-5.4183091,1.6154188-7.9193043,1.0762606-2.5009952,2.5349175-4.6720195,4.3764847-6.5130727,1.8400253-1.8400253,3.9940884-3.2986822,6.4611614-4.3769987,2.4650171-1.0762606,5.1222603-1.6149049,7.9717296-1.6149049Z"/>
      <path class="cls-1" d="m280.6031415,128.0052228h5.4183091v70.7587372h43.0380883v5.4183091h-48.4563974v-76.1770463Z"/>
      <path class="cls-1" d="m355.2166802,205.2246074c-2.8494693,0-5.5067125-.5386443-7.9727576-1.6149049s-4.6206221-2.5359454-6.4606474-4.3769987c-1.8410532-1.8400253-3.3007381-3.9946024-4.3769987-6.4606474-1.0772885-2.466045-1.6149049-5.1232882-1.6149049-7.9727576v-32.8254341h5.419337v32.8254341c0,2.0846767.3803404,4.0480556,1.146161,5.8880809.7637647,1.8420812,1.8235781,3.438483,3.1784124,4.7933172s2.9512361,2.4146477,4.7933172,3.1784124c1.8400253.7658206,3.8034042,1.146161,5.8880809,1.146161,2.0836487,0,4.0285246-.3803404,5.8356556-1.146161,1.8050751-.7637647,3.3860577-1.8235781,4.7408919-3.1784124s2.4136197-2.9512361,3.1784124-4.7933172c.7637647-1.8400253,1.146161-3.8034042,1.146161-5.8880809v-32.8254341h5.5231597v32.8254341c0,2.8494693-.5386443,5.5067125-1.6149049,7.9727576-1.0783165,2.466045-2.5369734,4.6206221-4.3769987,6.4606474-1.8410532,1.8410532-4.0120775,3.3007381-6.5130727,4.3769987s-5.1417913,1.6149049-7.9193043,1.6149049Z"/>
      <path class="cls-1" d="m382.8314506,204.1822691l15.1108221-26.0522908-15.1108221-26.0522908h6.3568247l11.8799844,20.6339817,11.8799844-20.6339817h6.2519741l-15.0059715,26.0522908,15.0059715,26.0522908h-6.2519741l-11.8799844-20.6329538-11.8799844,20.6329538h-6.3568247Z"/>
      <path class="cls-1" d="m449.9430316,205.5371033c-3.7520068,0-7.2943125-.7133953-10.6289728-2.136074s-6.2365549-3.3685826-8.701572-5.8356556c-2.467073-2.4650171-4.4129768-5.3494366-5.8356556-8.6491467-1.4247347-3.2997101-2.136074-6.8255686-2.136074-10.5775755s.7113394-7.2943125,2.136074-10.6289728c1.4226788-3.3346603,3.3685826-6.234499,5.8356556-8.701572,2.4650171-2.4650171,5.3669117-4.4109209,8.701572-5.8356556,3.3346603-1.4237067,6.876966-2.137102,10.6289728-2.137102s7.2768374.7133953,10.5775755,2.137102c3.2986822,1.4247347,6.1820737,3.3706385,8.6491467,5.8356556,2.4650171,2.467073,4.4109209,5.3669117,5.8356556,8.701572,1.4226788,3.3346603,2.136074,6.876966,2.136074,10.6289728v1.3548343c0,.4163186-.0359781.8696432-.1038227,1.3548343h-48.7699213c.3464182,2.7096685,1.146161,5.2106637,2.3961446,7.5029857,1.2510116,2.292322,2.8299383,4.3081262,4.7419199,6.0443288,1.9099257,1.7372306,4.1159001,3.0920648,6.6168954,4.0634748,2.5009952.9744938,5.1407633,1.4596849,7.9203322,1.4596849,2.0137483,0,3.923674-.3813684,5.7318329-1.1471889,1.8050751-.7627367,3.4025048-1.8389973,4.7933172-3.2298097l3.8558295,3.8558295c-1.807131,1.807131-3.9442329,3.2483128-6.40925,4.3245734-2.466045,1.0762606-5.1243162,1.6149049-7.9717296,1.6149049Zm21.5714695-29.9081203c-.3484741-2.7096685-1.146161-5.2106637-2.3971726-7.5029857-1.2499836-2.292322-2.8309663-4.3070983-4.7408919-6.0443288-1.9119816-1.7351747-4.1004809-3.0900089-6.565498-4.0634748-2.467073-.9724379-5.0903939-1.4596849-7.8679069-1.4596849-2.7795689,0-5.419337.4872469-7.9203322,1.4596849-2.5009952.9734659-4.7069697,2.3283001-6.6168954,4.0634748-1.9119816,1.7372306-3.4909083,3.7520068-4.7419199,6.0443288-1.2499836,2.292322-2.0497265,4.7933172-2.3961446,7.5029857h43.2467616Z"/>
    </g>
  </g>
</svg>